<?xml version="1.0" encoding="UTF-8"?>
<svg width="2256" height="232" version="1.1" viewBox="0 0 2256 232" xmlns="http://www.w3.org/2000/svg">
 <g fill="#a2af9d">
  <rect x="16" y="16" width="40" height="40"/>
  <rect x="16" y="60" width="40" height="40"/>
  <rect x="16" y="104" width="40" height="40"/>
  <rect x="16" y="148" width="40" height="40"/>
  <rect x="16" y="192" width="40" height="40"/>
  <rect x="60" y="16" width="40" height="40"/>
  <rect x="60" y="104" width="40" height="40"/>
  <rect x="104" y="16" width="40" height="40"/>
  <rect x="104" y="104" width="40" height="40"/>
  <rect x="148" y="16" width="40" height="40"/>
  <rect x="148" y="104" width="40" height="40"/>
  <rect x="192" y="16" width="40" height="40"/>
  <rect x="280" y="16" width="40" height="40"/>
  <rect x="280" y="60" width="40" height="40"/>
  <rect x="280" y="104" width="40" height="40"/>
  <rect x="280" y="148" width="40" height="40"/>
  <rect x="280" y="192" width="40" height="40"/>
  <rect x="324" y="192" width="40" height="40"/>
  <rect x="368" y="192" width="40" height="40"/>
  <rect x="412" y="192" width="40" height="40"/>
  <rect x="456" y="192" width="40" height="40"/>
  <rect x="720" y="16" width="40" height="40"/>
  <rect x="720" y="60" width="40" height="40"/>
  <rect x="720" y="104" width="40" height="40"/>
  <rect x="720" y="192" width="40" height="40"/>
  <rect x="764" y="16" width="40" height="40"/>
  <rect x="764" y="104" width="40" height="40"/>
  <rect x="764" y="192" width="40" height="40"/>
  <rect x="808" y="16" width="40" height="40"/>
  <rect x="808" y="104" width="40" height="40"/>
  <rect x="808" y="192" width="40" height="40"/>
  <rect x="852" y="16" width="40" height="40"/>
  <rect x="852" y="104" width="40" height="40"/>
  <rect x="852" y="192" width="40" height="40"/>
  <rect x="896" y="16" width="40" height="40"/>
  <rect x="896" y="104" width="40" height="40"/>
  <rect x="896" y="148" width="40" height="40"/>
  <rect x="896" y="192" width="40" height="40"/>
  <rect x="984" y="16" width="40" height="40"/>
  <rect x="984" y="60" width="40" height="40"/>
  <rect x="984" y="104" width="40" height="40"/>
  <rect x="984" y="148" width="40" height="40"/>
  <rect x="984" y="192" width="40" height="40"/>
  <rect x="1028" y="16" width="40" height="40"/>
  <rect x="1028" y="104" width="40" height="40"/>
  <rect x="1072" y="16" width="40" height="40"/>
  <rect x="1072" y="104" width="40" height="40"/>
  <rect x="1116" y="16" width="40" height="40"/>
  <rect x="1116" y="104" width="40" height="40"/>
  <rect x="1160" y="16" width="40" height="40"/>
  <rect x="1160" y="60" width="40" height="40"/>
  <rect x="1160" y="104" width="40" height="40"/>
  <rect x="1160" y="148" width="40" height="40"/>
  <rect x="1160" y="192" width="40" height="40"/>
  <rect x="1248" y="16" width="40" height="40"/>
  <rect x="1248" y="60" width="40" height="40"/>
  <rect x="1248" y="104" width="40" height="40"/>
  <rect x="1248" y="148" width="40" height="40"/>
  <rect x="1248" y="192" width="40" height="40"/>
  <rect x="1292" y="16" width="40" height="40"/>
  <rect x="1292" y="104" width="40" height="40"/>
  <rect x="1336" y="16" width="40" height="40"/>
  <rect x="1336" y="104" width="40" height="40"/>
  <rect x="1380" y="16" width="40" height="40"/>
  <rect x="1380" y="104" width="40" height="40"/>
  <rect x="1380" y="148" width="40" height="40"/>
  <rect x="1424" y="16" width="40" height="40"/>
  <rect x="1424" y="60" width="40" height="40"/>
  <rect x="1424" y="104" width="40" height="40"/>
  <rect x="1424" y="192" width="40" height="40"/>
  <rect x="1512" y="16" width="40" height="40"/>
  <rect x="1512" y="60" width="40" height="40"/>
  <rect x="1512" y="104" width="40" height="40"/>
  <rect x="1512" y="148" width="40" height="40"/>
  <rect x="1512" y="192" width="40" height="40"/>
  <rect x="1556" y="60" width="40" height="40"/>
  <rect x="1600" y="104" width="40" height="40"/>
  <rect x="1644" y="148" width="40" height="40"/>
  <rect x="1688" y="16" width="40" height="40"/>
  <rect x="1688" y="60" width="40" height="40"/>
  <rect x="1688" y="104" width="40" height="40"/>
  <rect x="1688" y="148" width="40" height="40"/>
  <rect x="1688" y="192" width="40" height="40"/>
  <rect x="1776" y="16" width="40" height="40"/>
  <rect x="1776" y="60" width="40" height="40"/>
  <rect x="1776" y="104" width="40" height="40"/>
  <rect x="1776" y="148" width="40" height="40"/>
  <rect x="1776" y="192" width="40" height="40"/>
  <rect x="1820" y="16" width="40" height="40"/>
  <rect x="1820" y="104" width="40" height="40"/>
  <rect x="1820" y="192" width="40" height="40"/>
  <rect x="1864" y="16" width="40" height="40"/>
  <rect x="1864" y="104" width="40" height="40"/>
  <rect x="1864" y="192" width="40" height="40"/>
  <rect x="1908" y="16" width="40" height="40"/>
  <rect x="1908" y="104" width="40" height="40"/>
  <rect x="1908" y="192" width="40" height="40"/>
  <rect x="1952" y="16" width="40" height="40"/>
  <rect x="1952" y="192" width="40" height="40"/>
  <rect x="2040" y="16" width="40" height="40"/>
  <rect x="2084" y="16" width="40" height="40"/>
  <rect x="2128" y="16" width="40" height="40"/>
  <rect x="2128" y="60" width="40" height="40"/>
  <rect x="2128" y="104" width="40" height="40"/>
  <rect x="2128" y="148" width="40" height="40"/>
  <rect x="2128" y="192" width="40" height="40"/>
  <rect x="2172" y="16" width="40" height="40"/>
  <rect x="2216" y="16" width="40" height="40"/>
 </g>
 <g fill="#3b3c37">
  <rect width="40" height="40"/>
  <rect y="44" width="40" height="40"/>
  <rect y="88" width="40" height="40"/>
  <rect y="132" width="40" height="40"/>
  <rect y="176" width="40" height="40"/>
  <rect x="44" width="40" height="40"/>
  <rect x="44" y="88" width="40" height="40"/>
  <rect x="88" width="40" height="40"/>
  <rect x="88" y="88" width="40" height="40"/>
  <rect x="132" width="40" height="40"/>
  <rect x="132" y="88" width="40" height="40"/>
  <rect x="176" width="40" height="40"/>
  <rect x="264" width="40" height="40"/>
  <rect x="264" y="44" width="40" height="40"/>
  <rect x="264" y="88" width="40" height="40"/>
  <rect x="264" y="132" width="40" height="40"/>
  <rect x="264" y="176" width="40" height="40"/>
  <rect x="308" y="176" width="40" height="40"/>
  <rect x="352" y="176" width="40" height="40"/>
  <rect x="396" y="176" width="40" height="40"/>
  <rect x="440" y="176" width="40" height="40"/>
  <rect x="704" width="40" height="40"/>
  <rect x="704" y="44" width="40" height="40"/>
  <rect x="704" y="88" width="40" height="40"/>
  <rect x="704" y="176" width="40" height="40"/>
  <rect x="748" width="40" height="40"/>
  <rect x="748" y="88" width="40" height="40"/>
  <rect x="748" y="176" width="40" height="40"/>
  <rect x="792" width="40" height="40"/>
  <rect x="792" y="88" width="40" height="40"/>
  <rect x="792" y="176" width="40" height="40"/>
  <rect x="836" width="40" height="40"/>
  <rect x="836" y="88" width="40" height="40"/>
  <rect x="836" y="176" width="40" height="40"/>
  <rect x="880" width="40" height="40"/>
  <rect x="880" y="88" width="40" height="40"/>
  <rect x="880" y="132" width="40" height="40"/>
  <rect x="880" y="176" width="40" height="40"/>
  <rect x="968" width="40" height="40"/>
  <rect x="968" y="44" width="40" height="40"/>
  <rect x="968" y="88" width="40" height="40"/>
  <rect x="968" y="132" width="40" height="40"/>
  <rect x="968" y="176" width="40" height="40"/>
  <rect x="1012" width="40" height="40"/>
  <rect x="1012" y="88" width="40" height="40"/>
  <rect x="1056" width="40" height="40"/>
  <rect x="1056" y="88" width="40" height="40"/>
  <rect x="1100" width="40" height="40"/>
  <rect x="1100" y="88" width="40" height="40"/>
  <rect x="1144" width="40" height="40"/>
  <rect x="1144" y="44" width="40" height="40"/>
  <rect x="1144" y="88" width="40" height="40"/>
  <rect x="1144" y="132" width="40" height="40"/>
  <rect x="1144" y="176" width="40" height="40"/>
  <rect x="1232" width="40" height="40"/>
  <rect x="1232" y="44" width="40" height="40"/>
  <rect x="1232" y="88" width="40" height="40"/>
  <rect x="1232" y="132" width="40" height="40"/>
  <rect x="1232" y="176" width="40" height="40"/>
  <rect x="1276" width="40" height="40"/>
  <rect x="1276" y="88" width="40" height="40"/>
  <rect x="1320" width="40" height="40"/>
  <rect x="1320" y="88" width="40" height="40"/>
  <rect x="1364" width="40" height="40"/>
  <rect x="1364" y="88" width="40" height="40"/>
  <rect x="1364" y="132" width="40" height="40"/>
  <rect x="1408" width="40" height="40"/>
  <rect x="1408" y="44" width="40" height="40"/>
  <rect x="1408" y="88" width="40" height="40"/>
  <rect x="1408" y="176" width="40" height="40"/>
  <rect x="1496" width="40" height="40"/>
  <rect x="1496" y="44" width="40" height="40"/>
  <rect x="1496" y="88" width="40" height="40"/>
  <rect x="1496" y="132" width="40" height="40"/>
  <rect x="1496" y="176" width="40" height="40"/>
  <rect x="1540" y="44" width="40" height="40"/>
  <rect x="1584" y="88" width="40" height="40"/>
  <rect x="1628" y="132" width="40" height="40"/>
  <rect x="1672" width="40" height="40"/>
  <rect x="1672" y="44" width="40" height="40"/>
  <rect x="1672" y="88" width="40" height="40"/>
  <rect x="1672" y="132" width="40" height="40"/>
  <rect x="1672" y="176" width="40" height="40"/>
  <rect x="1760" width="40" height="40"/>
  <rect x="1760" y="44" width="40" height="40"/>
  <rect x="1760" y="88" width="40" height="40"/>
  <rect x="1760" y="132" width="40" height="40"/>
  <rect x="1760" y="176" width="40" height="40"/>
  <rect x="1804" width="40" height="40"/>
  <rect x="1804" y="88" width="40" height="40"/>
  <rect x="1804" y="176" width="40" height="40"/>
  <rect x="1848" width="40" height="40"/>
  <rect x="1848" y="88" width="40" height="40"/>
  <rect x="1848" y="176" width="40" height="40"/>
  <rect x="1892" width="40" height="40"/>
  <rect x="1892" y="88" width="40" height="40"/>
  <rect x="1892" y="176" width="40" height="40"/>
  <rect x="1936" width="40" height="40"/>
  <rect x="1936" y="176" width="40" height="40"/>
  <rect x="2024" width="40" height="40"/>
  <rect x="2068" width="40" height="40"/>
  <rect x="2112" width="40" height="40"/>
  <rect x="2112" y="44" width="40" height="40"/>
  <rect x="2112" y="88" width="40" height="40"/>
  <rect x="2112" y="132" width="40" height="40"/>
  <rect x="2112" y="176" width="40" height="40"/>
  <rect x="2156" width="40" height="40"/>
  <rect x="2200" width="40" height="40"/>
 </g>
</svg>
