<?xml version="1.0" encoding="UTF-8"?>
<svg width="760" height="232" version="1.1" viewBox="0 0 760 232" xmlns="http://www.w3.org/2000/svg">
 <g fill="#a2af9d">
  <rect x="16" y="16" width="40" height="40"/>
  <rect x="16" y="60" width="40" height="40"/>
  <rect x="16" y="104" width="40" height="40"/>
  <rect x="16" y="148" width="40" height="40"/>
  <rect x="16" y="192" width="40" height="40"/>
  <rect x="60" y="16" width="40" height="40"/>
  <rect x="60" y="104" width="40" height="40"/>
  <rect x="104" y="16" width="40" height="40"/>
  <rect x="104" y="104" width="40" height="40"/>
  <rect x="148" y="16" width="40" height="40"/>
  <rect x="148" y="104" width="40" height="40"/>
  <rect x="192" y="16" width="40" height="40"/>
  <rect x="280" y="16" width="40" height="40"/>
  <rect x="280" y="60" width="40" height="40"/>
  <rect x="280" y="104" width="40" height="40"/>
  <rect x="280" y="192" width="40" height="40"/>
  <rect x="324" y="16" width="40" height="40"/>
  <rect x="324" y="104" width="40" height="40"/>
  <rect x="324" y="192" width="40" height="40"/>
  <rect x="368" y="16" width="40" height="40"/>
  <rect x="368" y="104" width="40" height="40"/>
  <rect x="368" y="192" width="40" height="40"/>
  <rect x="412" y="16" width="40" height="40"/>
  <rect x="412" y="104" width="40" height="40"/>
  <rect x="412" y="192" width="40" height="40"/>
  <rect x="456" y="16" width="40" height="40"/>
  <rect x="456" y="104" width="40" height="40"/>
  <rect x="456" y="148" width="40" height="40"/>
  <rect x="456" y="192" width="40" height="40"/>
  <rect x="544" y="16" width="40" height="40"/>
  <rect x="544" y="60" width="40" height="40"/>
  <rect x="544" y="104" width="40" height="40"/>
  <rect x="544" y="148" width="40" height="40"/>
  <rect x="544" y="192" width="40" height="40"/>
  <rect x="588" y="60" width="40" height="40"/>
  <rect x="632" y="104" width="40" height="40"/>
  <rect x="676" y="148" width="40" height="40"/>
  <rect x="720" y="16" width="40" height="40"/>
  <rect x="720" y="60" width="40" height="40"/>
  <rect x="720" y="104" width="40" height="40"/>
  <rect x="720" y="148" width="40" height="40"/>
  <rect x="720" y="192" width="40" height="40"/>
 </g>
 <g fill="#3b3c37">
  <rect width="40" height="40"/>
  <rect y="44" width="40" height="40"/>
  <rect y="88" width="40" height="40"/>
  <rect y="132" width="40" height="40"/>
  <rect y="176" width="40" height="40"/>
  <rect x="44" width="40" height="40"/>
  <rect x="44" y="88" width="40" height="40"/>
  <rect x="88" width="40" height="40"/>
  <rect x="88" y="88" width="40" height="40"/>
  <rect x="132" width="40" height="40"/>
  <rect x="132" y="88" width="40" height="40"/>
  <rect x="176" width="40" height="40"/>
  <rect x="264" width="40" height="40"/>
  <rect x="264" y="44" width="40" height="40"/>
  <rect x="264" y="88" width="40" height="40"/>
  <rect x="264" y="176" width="40" height="40"/>
  <rect x="308" width="40" height="40"/>
  <rect x="308" y="88" width="40" height="40"/>
  <rect x="308" y="176" width="40" height="40"/>
  <rect x="352" width="40" height="40"/>
  <rect x="352" y="88" width="40" height="40"/>
  <rect x="352" y="176" width="40" height="40"/>
  <rect x="396" width="40" height="40"/>
  <rect x="396" y="88" width="40" height="40"/>
  <rect x="396" y="176" width="40" height="40"/>
  <rect x="440" width="40" height="40"/>
  <rect x="440" y="88" width="40" height="40"/>
  <rect x="440" y="132" width="40" height="40"/>
  <rect x="440" y="176" width="40" height="40"/>
  <rect x="528" width="40" height="40"/>
  <rect x="528" y="44" width="40" height="40"/>
  <rect x="528" y="88" width="40" height="40"/>
  <rect x="528" y="132" width="40" height="40"/>
  <rect x="528" y="176" width="40" height="40"/>
  <rect x="572" y="44" width="40" height="40"/>
  <rect x="616" y="88" width="40" height="40"/>
  <rect x="660" y="132" width="40" height="40"/>
  <rect x="704" width="40" height="40"/>
  <rect x="704" y="44" width="40" height="40"/>
  <rect x="704" y="88" width="40" height="40"/>
  <rect x="704" y="132" width="40" height="40"/>
  <rect x="704" y="176" width="40" height="40"/>
 </g>
</svg>
