<?xml version="1.0" encoding="UTF-8"?><svg version="1.1" viewBox="0 0 127 127" xml:space="preserve" xmlns="http://www.w3.org/2000/svg"><circle cx="63.3" cy="60.3" r="56.7" fill="#0f9d58" stroke="#000" stroke-width="6.67" style="paint-order:stroke markers fill"/><g fill="#fff"><g transform="translate(13.3 10.3)"><path d="m59.6 49.9 1.19 3.71c8.86-5.91 11.3-17.9 5.34-26.8-5.93-8.87-17.9-11.3-26.8-5.34-8.87 5.91-11.3 17.9-5.34 26.8 1.41 2.11 3.23 3.93 5.34 5.34l1.2-3.71c-1.05-0.824-2.01-1.76-2.83-2.83-5.25-6.81-3.99-16.6 2.83-21.9 6.82-5.25 16.6-3.99 21.8 2.83 5.26 6.81 4 16.6-2.8 21.9z" fill="#fff"/></g><g transform="translate(13.3 10.3)"><path d="m63.1 60.6 2.05 6.34c16.2-8.29 22.7-28.2 14.4-44.4-8.3-16.2-28.2-22.6-44.4-14.4s-22.6 28.2-14.4 44.4c3.15 6.18 8.18 11.2 14.4 14.4l2.05-6.34c-4.21-2.38-7.7-5.85-10.1-10.1-7.16-12.7-2.66-28.8 10.1-36 12.7-7.16 28.8-2.66 36 10.1 7.16 12.7 2.66 28.8-10.1 36z" fill="#fff"/></g><path d="m57 51.8c-2.11-3.59-0.926-8.22 2.68-10.3 3.6-2.11 8.23-0.912 10.3 2.68 2.13 3.59 0.913 8.22-2.68 10.3l16.1 49.9h-8.46c0-6.33-5.12-11.4-11.5-11.4-6.32 0-11.4 5.12-11.4 11.4h-8.49l16.1-49.9c-1.11-0.65-2.02-1.58-2.68-2.68zm11.6 26.4c0-2.81-2.28-5.09-5.09-5.09-2.81 0-5.09 2.28-5.09 5.09 0 2.8 2.28 5.09 5.09 5.09 2.81 0 5.09-2.29 5.09-5.09z"/></g></svg>